<?xml version="1.0" encoding="UTF-8" standalone="no"?>
<!DOCTYPE svg PUBLIC "-//W3C//DTD SVG 1.1//EN" "http://www.w3.org/Graphics/SVG/1.1/DTD/svg11.dtd">
<svg version="1.1" xmlns="http://www.w3.org/2000/svg" xmlns:xlink="http://www.w3.org/1999/xlink" preserveAspectRatio="xMidYMid meet" viewBox="0 0 640 640" width="640" height="640"><defs><path d="M120.24 64.73L67.73 305.59L232.1 385.49L320 388.92L320 266.78L286.9 266.78L218.41 223.4L167.04 84.14L184.16 17.93L120.24 64.73Z" id="hA09dPnh"></path><path d="M519.76 64.73L572.27 305.59L407.9 385.49L320 388.92L320 266.78L353.1 266.78L421.59 223.4L472.96 84.14L455.84 17.93L519.76 64.73Z" id="h2YO4byOw"></path><path d="M344.1 267.78L331.84 231L389.63 197.73L235.53 180.22L277.56 197.73L296.82 267.78L344.1 267.78Z" id="b3pbgeebm3"></path><path d="M316.84 387.29L316.84 607.6L272.9 607.6L214.68 536.82L285.45 387.29L316.84 387.29Z" id="le94j2CBi"></path><path d="M315.84 387.29L315.84 607.6L359.79 607.6L418.01 536.82L347.24 387.29L315.84 387.29Z" id="bfl1DryJY"></path><path d="M306.7 526.19L317.48 622.07L208.04 595.71L203.66 446.12L306.7 526.19Z" id="aQf39M4ii"></path><path d="M347.56 529.71L317.83 621.5L229 552.35L286.72 414.27L347.56 529.71Z" id="b2HJuVXQT5"></path><path d="M389.69 556.25L318.31 621.17L275.53 517.04L394.19 425.84L389.69 556.25Z" id="bpeeA6erM"></path><path d="M338.39 527.2L316.14 621.09L427.96 608.11L450.33 460.13L338.39 527.2Z" id="ancsxD7yY"></path></defs><g><g><g><use xlink:href="#hA09dPnh" opacity="1" fill="#000000" fill-opacity="1"></use><g><use xlink:href="#hA09dPnh" opacity="1" fill-opacity="0" stroke="#000000" stroke-width="1" stroke-opacity="1"></use></g></g><g><use xlink:href="#h2YO4byOw" opacity="1" fill="#000000" fill-opacity="1"></use><g><use xlink:href="#h2YO4byOw" opacity="1" fill-opacity="0" stroke="#000000" stroke-width="1" stroke-opacity="1"></use></g></g><g><use xlink:href="#b3pbgeebm3" opacity="1" fill="#000000" fill-opacity="1"></use><g><use xlink:href="#b3pbgeebm3" opacity="1" fill-opacity="0" stroke="#000000" stroke-width="1" stroke-opacity="1"></use></g></g><g><use xlink:href="#le94j2CBi" opacity="1" fill="#000000" fill-opacity="1"></use><g><use xlink:href="#le94j2CBi" opacity="1" fill-opacity="0" stroke="#000000" stroke-width="1" stroke-opacity="1"></use></g></g><g><use xlink:href="#bfl1DryJY" opacity="1" fill="#000000" fill-opacity="1"></use><g><use xlink:href="#bfl1DryJY" opacity="1" fill-opacity="0" stroke="#000000" stroke-width="1" stroke-opacity="1"></use></g></g><g><use xlink:href="#aQf39M4ii" opacity="1" fill="#c61c1c" fill-opacity="1"></use><g><use xlink:href="#aQf39M4ii" opacity="1" fill-opacity="0" stroke="#000000" stroke-width="1" stroke-opacity="0"></use></g></g><g><use xlink:href="#b2HJuVXQT5" opacity="1" fill="#c6321c" fill-opacity="1"></use><g><use xlink:href="#b2HJuVXQT5" opacity="1" fill-opacity="0" stroke="#000000" stroke-width="1" stroke-opacity="0"></use></g></g><g><use xlink:href="#bpeeA6erM" opacity="1" fill="#e72e12" fill-opacity="1"></use><g><use xlink:href="#bpeeA6erM" opacity="1" fill-opacity="0" stroke="#000000" stroke-width="1" stroke-opacity="0"></use></g></g><g><use xlink:href="#ancsxD7yY" opacity="1" fill="#e75b12" fill-opacity="1"></use><g><use xlink:href="#ancsxD7yY" opacity="1" fill-opacity="0" stroke="#000000" stroke-width="1" stroke-opacity="0"></use></g></g></g></g></svg>